<?xml version="1.0" encoding="iso-8859-1"?>
<!-- Generator: Adobe Illustrator 19.0.0, SVG Export Plug-In . SVG Version: 6.00 Build 0)  -->
<svg version="1.1" id="Layer_1" xmlns="http://www.w3.org/2000/svg" xmlns:xlink="http://www.w3.org/1999/xlink" x="0px" y="0px"
	 viewBox="0 0 512 512" style="enable-background:new 0 0 512 512;" xml:space="preserve">
<g>
	<g>
		<path d="M322.783,0C285.9,0,256,29.9,256,66.783C256,29.9,226.1,0,189.217,0c-36.883,0-66.783,29.9-66.783,66.783l22.261,66.783
			h222.609l22.261-66.783C389.565,29.9,359.666,0,322.783,0z"/>
	</g>
</g>
<g>
	<g>
		<rect x="144.696" y="166.957" width="222.609" height="44.522"/>
	</g>
</g>
<g>
	<g>
		<path d="M367.304,244.87H144.696l-111.304,256c37.1,0,37.1,11.13,74.2,11.13s37.1-11.13,74.199-11.13
			c37.101,0,37.101,11.13,74.201,11.13c37.102,0,37.102-11.13,74.204-11.13c37.103,0,37.103,11.13,74.207,11.13
			s37.103-11.13,74.207-11.13L367.304,244.87z"/>
	</g>
</g>
<g>
</g>
<g>
</g>
<g>
</g>
<g>
</g>
<g>
</g>
<g>
</g>
<g>
</g>
<g>
</g>
<g>
</g>
<g>
</g>
<g>
</g>
<g>
</g>
<g>
</g>
<g>
</g>
<g>
</g>
</svg>
