<?xml version="1.0" encoding="iso-8859-1"?>
<!-- Generator: Adobe Illustrator 18.1.1, SVG Export Plug-In . SVG Version: 6.00 Build 0)  -->
<svg version="1.1" id="Capa_1" xmlns="http://www.w3.org/2000/svg" xmlns:xlink="http://www.w3.org/1999/xlink" x="0px" y="0px"
	 viewBox="0 0 611.999 611.999" style="enable-background:new 0 0 611.999 611.999;" xml:space="preserve">
<g>
	<g>
		<path d="M608.328,55.877c-4.627-6.632-13.149-10.138-24.646-10.138c-3.682,0-6.318,0.376-6.605,0.421l-0.43,0.063L420.174,90.658
			c-2.03,0.511-22.707,5.961-35.342,18.598c-16.091,16.09-31.571,35.07-49.495,57.049c-22.118,27.121-47.187,57.858-79.252,89.921
			c-25.07,25.07-57.658,52.065-86.41,75.882c-24.062,19.933-44.844,37.148-58.342,50.647c-14.85,14.849-20.747,37.157-21.278,39.264
			L45.087,581.156l-0.058,0.611c-0.138,1.458-1.12,14.494,6.703,23.09c4.129,4.538,9.956,6.937,16.849,6.937
			c3.172,0,6.649-0.503,10.339-1.496c39.975-10.764,237.258-133.843,317.295-213.881c90.163-90.163,198.738-275.447,212.964-314.124
			C613.206,71.346,612.919,62.459,608.328,55.877z"/>
		<path d="M73.215,361.637c3.949,0,7.809-1.859,11.476-5.526c2.515-2.515,5.354-5.223,8.684-8.282
			c12.836-11.785,30.268-26.225,48.724-41.513c28.98-24.007,61.827-51.217,87.345-76.735c32.545-32.545,57.843-63.564,80.164-90.93
			c16.333-20.026,30.436-37.321,44.778-52.168c1.268-1.311,2.535-2.602,3.806-3.872c5.579-5.581,4.27-12.911,0.205-16.977
			C316.816,24.054,258.369,0.206,198.04,0.206c-55.071,0-105.401,19.999-141.718,56.317C17.633,95.213-2.295,148.954,0.21,207.847
			c2.413,56.767,26.187,111.715,65.225,150.751C66.148,359.31,68.816,361.637,73.215,361.637z"/>
	</g>
</g>
<g>
</g>
<g>
</g>
<g>
</g>
<g>
</g>
<g>
</g>
<g>
</g>
<g>
</g>
<g>
</g>
<g>
</g>
<g>
</g>
<g>
</g>
<g>
</g>
<g>
</g>
<g>
</g>
<g>
</g>
</svg>
