<?xml version="1.0" encoding="iso-8859-1"?>
<!-- Generator: Adobe Illustrator 19.0.0, SVG Export Plug-In . SVG Version: 6.00 Build 0)  -->
<svg version="1.1" id="Layer_1" xmlns="http://www.w3.org/2000/svg" xmlns:xlink="http://www.w3.org/1999/xlink" x="0px" y="0px"
	 viewBox="0 0 512 512" style="enable-background:new 0 0 512 512;" xml:space="preserve">
<g>
	<g>
		<polygon points="424.418,96.786 364.86,96.786 426.064,171.674 		"/>
	</g>
</g>
<g>
	<g>
		<path d="M406.161,0H105.842c-9.864,0-17.86,7.997-17.86,17.86v43.204c15.618,0,320.463,0,336.039,0V17.86h0.001
			C424.021,7.997,416.024,0,406.161,0z"/>
	</g>
</g>
<g>
	<g>
		<polygon points="87.585,96.786 85.937,171.674 147.142,96.786 		"/>
	</g>
</g>
<g>
	<g>
		<path d="M427.341,229.681L318.727,96.786H193.275L84.662,229.681l-5.809,264.066C78.633,503.764,86.701,512,96.709,512h120.796
			c8.841,0,16.352-6.468,17.663-15.211l20.832-138.894l20.832,138.894c1.312,8.743,8.822,15.211,17.663,15.211h120.796
			c10.022,0,18.076-8.252,17.856-18.253L427.341,229.681z"/>
	</g>
</g>
<g>
</g>
<g>
</g>
<g>
</g>
<g>
</g>
<g>
</g>
<g>
</g>
<g>
</g>
<g>
</g>
<g>
</g>
<g>
</g>
<g>
</g>
<g>
</g>
<g>
</g>
<g>
</g>
<g>
</g>
</svg>
