<?xml version="1.0" encoding="iso-8859-1"?>
<!-- Generator: Adobe Illustrator 19.0.0, SVG Export Plug-In . SVG Version: 6.00 Build 0)  -->
<svg version="1.1" id="Layer_1" xmlns="http://www.w3.org/2000/svg" xmlns:xlink="http://www.w3.org/1999/xlink" x="0px" y="0px"
	 viewBox="0 0 503.332 503.332" style="enable-background:new 0 0 503.332 503.332;" xml:space="preserve">
<g>
	<g>
		<g>
			<path d="M361.179,352.806c-19.876-30.225-22.738-62.162-8.519-94.938c-9.846-3.584-17.29-6.732-21.63-9.241
				c-3.718-2.149-8.528-1.058-11.054,2.417c-0.848,1.158-21.269,28.051-76.128,1.46C184.38,223.682,38.787,140.301,37.327,139.462
				c-2.006-1.141-4.39-1.418-6.597-0.747c-2.216,0.663-4.054,2.216-5.086,4.281c-0.848,1.704-1.981,3.743-3.273,6.102
				c-9.82,17.861-28.101,51.108-20.614,91.514c1.939,10.483,5.464,20.673,10.475,30.3c1.855,4.684,20.925,53.5,20.925,85.672
				c0,4.633,3.76,8.393,8.393,8.393h75.541c3.827,0,7.176-2.602,8.133-6.312c5.086-19.867,18.256-53.701,31.945-59.912
				c2.711-1.234,5.078-1.15,7.89,0.277c7.084,3.576,14.924,9.266,23.997,15.847c29.142,21.143,69.044,50.1,137.871,50.1h44.485
				l-9.619-11.365C361.574,353.36,361.364,353.083,361.179,352.806z M110.711,348.19H49.607
				c-2.711-36.058-21.118-81.853-21.957-83.934c-0.109-0.26-0.227-0.512-0.353-0.755c-2.585-4.919-4.667-9.871-6.287-14.966
				c0.084,0.017,0.176,0.034,0.26,0.05c1.637,0.269,3.374,0.588,5.154,0.94c0.47,0.092,0.957,0.193,1.435,0.294
				c1.637,0.336,3.324,0.713,5.07,1.116c0.327,0.076,0.646,0.143,0.99,0.227c2.073,0.487,4.214,1.024,6.413,1.595
				c0.453,0.118,0.923,0.243,1.385,0.361c1.771,0.47,3.584,0.965,5.422,1.477c0.638,0.176,1.284,0.353,1.93,0.537
				c2.132,0.604,4.297,1.234,6.497,1.897c0.235,0.067,0.462,0.134,0.688,0.201c2.241,0.671,4.507,1.377,6.799,2.09
				c0.881,0.277,1.771,0.562,2.661,0.848c1.586,0.504,3.173,1.016,4.776,1.536c0.923,0.302,1.847,0.596,2.778,0.906
				c2.182,0.722,4.373,1.452,6.572,2.199c1.301,0.445,2.602,0.89,3.903,1.343c1.049,0.361,2.098,0.722,3.148,1.091
				c1.486,0.52,2.971,1.041,4.449,1.561c0.671,0.243,1.335,0.478,1.998,0.713c18.038,6.446,35.513,13.287,49.076,19.02
				C125.609,302.79,114.832,334.249,110.711,348.19z"/>
			<path d="M442.702,283.838l-7.655-1.838c-11.65-2.787-23.695-5.674-35.303-9.048c-11.575-3.374-21.882-6.564-31.005-9.552
				l-0.814,1.444c-11.784,27.371-9.493,52.996,7.009,78.311l18.482,21.823h9.048c1.074,0,27.17-0.092,93.385-8.461
				c3.685-0.462,6.631-3.307,7.227-6.975C503.16,349.046,510.312,300.171,442.702,283.838z"/>
		</g>
	</g>
</g>
<g>
</g>
<g>
</g>
<g>
</g>
<g>
</g>
<g>
</g>
<g>
</g>
<g>
</g>
<g>
</g>
<g>
</g>
<g>
</g>
<g>
</g>
<g>
</g>
<g>
</g>
<g>
</g>
<g>
</g>
</svg>
