<?xml version="1.0" encoding="iso-8859-1"?>
<!-- Generator: Adobe Illustrator 16.0.0, SVG Export Plug-In . SVG Version: 6.00 Build 0)  -->
<!DOCTYPE svg PUBLIC "-//W3C//DTD SVG 1.1//EN" "http://www.w3.org/Graphics/SVG/1.1/DTD/svg11.dtd">
<svg version="1.1" id="Capa_1" xmlns="http://www.w3.org/2000/svg" xmlns:xlink="http://www.w3.org/1999/xlink" x="0px" y="0px"
	 width="287.755px" height="287.755px" viewBox="0 0 287.755 287.755" style="enable-background:new 0 0 287.755 287.755;"
	 xml:space="preserve">
<g>
	<path d="M134.16,279.13c-15.24,0-26.715-12.31-26.715-27.544c0-15.162,11.475-26.638,26.715-26.638
		c15.162,0,27.472,11.476,27.472,26.638C161.626,266.821,149.316,279.13,134.16,279.13z"/>
	<path d="M265.515,176.575c-1.682,7.085-2.275,19.503-6.762,25.244c-2.708,3.465-6.773,5.626-11.943,5.626H92.21
		c-9.962,0-18.056-8.022-18.056-18.003c0-6.461-18.507-98.199-25.497-132.633c-1.453-7.146-8.551-12.995-15.834-13.061
		l-14.711-0.141c-19.786,0-18.075-18.774-18.075-18.774c0.384-6.626,2.642-10.581,5.434-12.911
		c5.597-4.668,18.231-3.008,25.347-3.02l12.874-0.024c22.146,0,30.883,12.661,34.317,22.929c2.312,6.917,3.495,18.735,5.05,25.857
		l22.104,100.829c1.561,7.122,8.737,12.893,16.021,12.893H222.31c7.29,0,14.412-5.771,15.907-12.91l16.507-78.486
		c2.132-9.217,5.566-13.627,9.086-15.501c6.425-3.444,19.882,1.63,22.416,8.455c3.759,10.157-0.595,27.37-0.595,27.37
		S272.691,146.484,265.515,176.575z"/>
	<path d="M224.382,279.13c-15.18,0-26.649-12.31-26.649-27.544c0-15.162,11.47-26.638,26.649-26.638
		c15.162,0,27.525,11.476,27.525,26.638C251.908,266.821,239.544,279.13,224.382,279.13z"/>
	<path d="M135.085,153.335c-4.984,0-9.025-4.053-9.025-9.043c0-4.978,4.042-9.031,9.025-9.031c4.996,0,9.031,4.053,9.031,9.031
		C144.116,149.283,140.087,153.335,135.085,153.335z"/>
	<path d="M171.209,153.335c-4.983,0-9.024-4.053-9.024-9.043c0-4.978,4.041-9.031,9.024-9.031c4.979,0,9.031,4.053,9.031,9.031
		C180.241,149.283,176.188,153.335,171.209,153.335z"/>
	<path d="M207.323,153.335c-4.99,0-9.031-4.053-9.031-9.043c0-4.978,4.041-9.031,9.031-9.031c4.978,0,9.025,4.053,9.025,9.031
		C216.348,149.283,212.3,153.335,207.323,153.335z"/>
	<path d="M117.022,117.21c-4.972,0-9.037-4.035-9.037-9.021c0-4.981,4.065-9.035,9.037-9.035c5.008,0,9.043,4.053,9.043,9.035
		C126.06,113.175,122.024,117.21,117.022,117.21z"/>
	<path d="M153.147,99.161c4.984,0,9.025,4.044,9.025,9.028c0,4.986-4.041,9.028-9.025,9.028c-4.989,0-9.031-4.042-9.031-9.028
		C144.116,103.205,148.158,99.161,153.147,99.161z"/>
	<path d="M189.266,99.161c4.984,0,9.025,4.044,9.025,9.028c0,4.986-4.041,9.028-9.025,9.028c-4.99,0-9.031-4.042-9.031-9.028
		C180.235,103.205,184.276,99.161,189.266,99.161z"/>
	<path d="M225.379,99.161c4.983,0,9.024,4.044,9.024,9.028c0,4.986-4.041,9.028-9.024,9.028c-4.99,0-9.031-4.042-9.031-9.028
		C216.348,103.205,220.389,99.161,225.379,99.161z"/>
	<path d="M207.323,81.104c-4.99,0-9.031-4.053-9.031-9.022c0-4.993,4.041-9.031,9.031-9.031c4.978,0,9.025,4.032,9.025,9.031
		C216.348,77.051,212.3,81.104,207.323,81.104z"/>
	<path d="M171.209,81.104c-4.983,0-9.024-4.053-9.024-9.022c0-4.993,4.041-9.031,9.024-9.031c4.979,0,9.031,4.032,9.031,9.031
		C180.241,77.051,176.188,81.104,171.209,81.104z"/>
	<path d="M135.085,81.104c-4.984,0-9.025-4.053-9.025-9.022c0-4.993,4.042-9.031,9.025-9.031c4.996,0,9.031,4.032,9.031,9.031
		C144.116,77.051,140.087,81.104,135.085,81.104z"/>
</g>
<g>
</g>
<g>
</g>
<g>
</g>
<g>
</g>
<g>
</g>
<g>
</g>
<g>
</g>
<g>
</g>
<g>
</g>
<g>
</g>
<g>
</g>
<g>
</g>
<g>
</g>
<g>
</g>
<g>
</g>
</svg>
